<?xml version="1.0" encoding="utf-8"?>
<!-- Generator: Adobe Illustrator 23.0.1, SVG Export Plug-In . SVG Version: 6.00 Build 0)  -->
<svg version="1.1" id="图层_1" xmlns="http://www.w3.org/2000/svg" xmlns:xlink="http://www.w3.org/1999/xlink" x="0px" y="0px"
	 viewBox="0 0 512 640" style="enable-background:new 0 0 512 640; fill: #00b7ee" xml:space="preserve">
<path d="M255.26,304.29h65.52c4.5-11.47,6.89-22.76,6.89-32.72V147.52L197.09,83.38L66.5,147.33v124.24
	c0,28.13,19.65,65.29,42.91,81.15l87.68,59.8l37.66-25.68v-62.03C234.76,313.48,243.94,304.31,255.26,304.29z M186.83,280.44
	c-2.44,2.23-6.22,2.07-8.46-0.36l-32.03-34.73c-2.22-2.46-2.04-6.25,0.42-8.47c2.42-2.2,6.16-2.04,8.4,0.34l27.98,30.34l56.25-51.52
	c2.44-2.24,6.24-2.07,8.48,0.37c2.24,2.44,2.07,6.24-0.37,8.48L186.83,280.44z"/>
<path d="M83.1,389.19l114,77.75l37.66-25.69v-39.89l-34.28,23.38c-2.04,1.39-4.72,1.39-6.76,0l-91.06-62.1
	c-26.55-18.1-48.15-58.95-48.15-91.06V143.59c0-2.29,1.3-4.38,3.36-5.39l136.57-66.9c1.67-0.82,3.62-0.82,5.28,0l136.59,67.09
	c2.05,1.01,3.35,3.1,3.36,5.38v127.79c-0.19,11.17-2.25,22.23-6.09,32.72h34.38c2.71-10,4.12-20.3,4.21-30.66V118.09L197.11,32.1
	L22,117.86v155.77C22,315.76,48.26,365.44,83.1,389.19z"/>
<circle cx="298.81" cy="460.5" r="19.4"/>
<path d="M454.19,357.74c-1.61-1.75-3.89-2.75-6.27-2.76H407.5v33.43h74.85L454.19,357.74z"/>
<path d="M407.5,454.5h6.34c3.32-17.02,19.82-28.12,36.84-24.8c12.54,2.45,22.35,12.26,24.8,24.8h6.01c4.7,0,8.51-3.81,8.52-8.51
	v-45.57h-82.5V454.5z"/>
<circle cx="444.66" cy="460.5" r="19.4"/>
<path d="M246.75,324.81v121.18c0,4.7,3.81,8.51,8.51,8.51h12.72c3.32-17.02,19.82-28.12,36.84-24.8
	c12.54,2.45,22.35,12.26,24.8,24.8h65.88V324.8c0-4.7-3.81-8.51-8.51-8.51H255.26C250.56,316.29,246.75,320.11,246.75,324.81z"/>
</svg>
